<svg id="レイヤー_1" data-name="レイヤー 1" xmlns="http://www.w3.org/2000/svg" viewBox="0 0 1732.6 701.46"><defs><style>.cls-1{fill:#bf0f30;}</style></defs><path d="M360,535.75a17.14,17.14,0,0,1-3,9,9.38,9.38,0,0,1-8.37,4.79,14.86,14.86,0,0,1-6.58-1.8q-21.53-10.17-50.22-16.44t-58.9-11.06q-30.19-4.8-58.9-10.47t-50.23-14.65A70.52,70.52,0,0,0,131,507.65l6.28,8.37a56.26,56.26,0,0,1,4.48,6.88,18,18,0,0,1,1.8,8.67,8.05,8.05,0,0,1-3.59,7.17,12.88,12.88,0,0,1-7.18,2.39q-7.17,0-15.24-9a153.14,153.14,0,0,1-16.45-22.73,334.59,334.59,0,0,1-16.44-30.79q-8.07-17-14.65-33.19T58.62,415.87q-4.8-13.46-6.58-20.63L25.73,290a17.66,17.66,0,0,1,.9-4.79,13.17,13.17,0,0,1,4.48-6,22.43,22.43,0,0,1-2.39-10.16q0-16.74,19.14-30.79T94.2,214.36a347.54,347.54,0,0,1,57.1-15.25q29.89-5.38,50.83-5.38,6,0,17.93.9a107,107,0,0,1,23.62,4.48A55.85,55.85,0,0,1,264,210.17q8.67,7.49,8.67,20.63,0,12.55-12.85,28.7a326.45,326.45,0,0,1-32,34.09q-19.14,17.93-41.26,36.77T145.32,368a299.58,299.58,0,0,0-32,36.47q-12.87,17.65-12.85,32.59,0,11.37,9.86,20a95.32,95.32,0,0,0,24.82,15.25,228.84,228.84,0,0,0,32.58,11.36q17.64,4.8,33.49,7.78t27.5,4.48q11.67,1.5,14.06,1.49,7.76,0,26.9,1.8a312,312,0,0,1,39.17,6.28,177.24,177.24,0,0,1,35.58,11.66Q360,524.39,360,535.75ZM244.58,231.4c0-2.78-1.4-5.28-4.19-7.48a34,34,0,0,0-11.06-5.38,83.09,83.09,0,0,0-15-3,145.42,145.42,0,0,0-15.84-.89q-12,0-28.7,3.58t-33.79,9Q119,232.6,104.66,238t-20.93,9a270.92,270.92,0,0,0-24.51,15.84q-12,8.67-12,17c0,.81.6,1.6,1.79,2.39s1.8,2.2,1.8,4.19q0,3.58,3.58,18.24t8.37,32.88q4.78,18.25,10.47,36.18a282.82,282.82,0,0,0,10.46,28.7,376.61,376.61,0,0,1,52.92-60.69q28.4-26,52.32-46t39.76-35.28Q244.57,245.15,244.58,231.4Z"/><path d="M497.51,397.63c2,2,3,3.19,3,3.59,0,.8-1.11,3.19-3.29,7.17A84.1,84.1,0,0,1,488.54,421a80.31,80.31,0,0,1-11.66,11.66q-6.28,5.08-12.26,5.08-12.56,0-20.33-5.08a43.67,43.67,0,0,1-12.86-12.86,62.87,62.87,0,0,1-7.77-17q-2.69-9.25-4.48-17.64c-.81-2.78-1.6-4.18-2.39-4.18q-1.8,0-7.18,12.85T398,421.84Q391.67,437.1,386,450c-3.79,8.58-6.28,12.85-7.47,12.85q-10.77,0-18.24-9.26a74.82,74.82,0,0,1-12-21.53,155.46,155.46,0,0,1-6.88-25.11q-2.38-12.86-3-20-1.79-16.15-7.77-53.82t-10.16-91.49q-1.22-11.34-2.69-20.62t-3.29-20.63q-1.8-11.35-3-25.72t-1.2-35.27q0-1.2.6-7.78t1.79-14.35a53.17,53.17,0,0,1,3.89-13.75q2.69-6,6.28-6c2.78,0,5.38,1.7,7.77,5.08A58.72,58.72,0,0,1,337,114.2a70.77,70.77,0,0,1,3.89,12.56,51.1,51.1,0,0,1,1.19,8.37,111.08,111.08,0,0,1-1.19,16.74,93.39,93.39,0,0,0-1.2,14.35A216.8,216.8,0,0,0,341.14,189q1.49,13.76,3.89,28.1t4.19,27.8q1.78,13.46,3,21.83c0,.4.39,3.19,1.19,8.37s1.69,11.66,2.69,19.43,2,16.15,3,25.12,2.1,17.74,3.29,26.31,2.29,16.14,3.29,22.72,1.69,11.27,2.09,14.05a20.7,20.7,0,0,0,.9,5.08q.9,3.3,1.79,7.48a70.31,70.31,0,0,0,2.1,7.77,13.45,13.45,0,0,0,3,5.38q3.59-7.17,9.26-22.12t12-30.5q6.28-15.54,12-27.2t9.87-11.66a15,15,0,0,1,7.77,1.79,28.33,28.33,0,0,0,7.77,3q6,2.4,6,6.28a43.58,43.58,0,0,0,1.2,9.27q1.18,7.17,3.89,18.83t6.28,22.72a86.71,86.71,0,0,0,8.37,18.84q4.77,7.77,9.56,7.77,2.39,0,6.58-6.28a14.57,14.57,0,0,1,11.36-6.87,11.78,11.78,0,0,1,4.19,1.49A34.73,34.73,0,0,1,497.51,397.63Z"/><path d="M789.89,383.88q0,10.75-9.86,26.6t-26.61,30.8a161.38,161.38,0,0,1-38.87,25.41,106.42,106.42,0,0,1-46,10.46,79.16,79.16,0,0,1-22.72-3.58,100.53,100.53,0,0,1-23.32-10.47,90.48,90.48,0,0,1-20.33-16.74A62.12,62.12,0,0,1,589,423.94q-3.6,3.58-8.67,12t-11.07,17a80.67,80.67,0,0,1-13.15,14.95q-7.19,6.27-15,6.28t-12.86-8.08a73.22,73.22,0,0,1-8.07-17.94A117.8,117.8,0,0,1,516,429.32c-.81-6-1.2-9.36-1.2-10.17q0-7.17,4.19-27.2a262.92,262.92,0,0,1,12.55-41.56,154,154,0,0,1,21.23-38.27q12.86-16.72,30.2-16.74c4.38,0,7.26,1.9,8.67,5.68a32,32,0,0,1,2.09,11.06v17.94a17.21,17.21,0,0,0,6.28,3.29,27.55,27.55,0,0,1,6,2.39,10.24,10.24,0,0,1,4.18,4.49c1,2,1.5,5.18,1.5,9.56a42.84,42.84,0,0,1-.6,7.48,35,35,0,0,0-.6,6.28A193.09,193.09,0,0,0,612.9,394a71.81,71.81,0,0,0,9.57,26.61,56.75,56.75,0,0,0,19.73,19.13q12.56,7.49,33.49,7.48,26.29,0,44.54-11.06a137.23,137.23,0,0,0,30.5-24.52,194.48,194.48,0,0,0,19.43-24.52q7.19-11.06,12-11.06Q789.89,376.1,789.89,383.88ZM580,357.57a9,9,0,0,0-1.2-4.49,7.89,7.89,0,0,1-1.2-3.89,7.37,7.37,0,0,1,1.2-4.18,8.56,8.56,0,0,0,1.2-4.78,3.19,3.19,0,0,0-1.2-2.7,2.55,2.55,0,0,1-1.2-2.09q-5.37,1.21-11.06,10.17a144.73,144.73,0,0,0-10.76,20.93,156.62,156.62,0,0,0-8.07,24.21q-3,12.27-3,20,0,4.2,2.39,13.76t5.38,12.55q10.15-20.93,18.84-40.66T580,357.57Z"/><path d="M959.11,335.44a57,57,0,0,1-8.67,29.9A133.77,133.77,0,0,1,929.22,392a219.33,219.33,0,0,1-27.51,22.72q-15,10.47-27.5,18.24-12,8.37-19.74,13.75T846.7,455a185.51,185.51,0,0,0,1.79,21.83q1.8,14.06,4.49,30.49t5.38,33.78q2.68,17.34,3.89,31.7,0,.58.89,5.38t2.4,10.76q1.49,6,2.39,11.06a52.49,52.49,0,0,1,.89,6.28q0,4.19-.29,9.27a37.83,37.83,0,0,1-1.8,9.57,18.86,18.86,0,0,1-4.48,7.47,10.55,10.55,0,0,1-7.78,3,10,10,0,0,1-9.56-5.68,23.6,23.6,0,0,1-3-11.06,9.21,9.21,0,0,1,.3-2.39,13.26,13.26,0,0,0,.29-3q0-6.59-4.78-35.28T827,509.74q-6-39.75-10.76-85.5a829.74,829.74,0,0,1-4.79-86.41A45.63,45.63,0,0,1,812,331a47,47,0,0,0,.6-6.88q-6,.6-17.64,5.38a168.19,168.19,0,0,0-23,11.66,147.64,147.64,0,0,0-20,14.35q-8.68,7.48-8.67,13.46h-4.19q-1.8,0-4.48-2.39a30.44,30.44,0,0,1-4.79-5.39c-1.39-2-2.69-4-3.88-6s-1.8-3.38-1.8-4.18q0-12.56,15-23.62t37.37-19.73a282.68,282.68,0,0,1,49.33-13.76,275.08,275.08,0,0,1,50.83-5.08q23.31,0,39.16,5.38T941.18,307q9.55,7.48,13.75,15.25T959.11,335.44Zm-29.3-1.79q0-6-14.94-12.26t-35.28-6.28q-17.94,0-26.31,1.2t-11.36,2.39q-1.21,9.57-1.8,22.72t-.59,26.91q0,14.35.89,27.8t2.09,22.43q8.37-5.38,23-14.65a304.62,304.62,0,0,0,29-20.93,170,170,0,0,0,24.81-24.52Q929.81,345.62,929.81,333.65Z"/><path d="M1097.24,429.32a25.21,25.21,0,0,1-6.88,17.64A57.08,57.08,0,0,1,1073,459.52a111.63,111.63,0,0,1-23,8.07,233.44,233.44,0,0,1-23.92,4.48q-11.35,1.5-20,1.8t-11.06.3q-13.15,0-20.33-4.19t-7.18-15a29.16,29.16,0,0,1,.6-6.28q.58-2.69,4.79-2.69a33,33,0,0,1,6,.9,33.25,33.25,0,0,0,6.57.9q2.39,0,15.25-.9t27.51-3.29a133,133,0,0,0,26.31-6.88q11.65-4.49,11.66-11.66c0-.79-4.1-3.29-12.26-7.47s-20.43-11.26-36.78-21.23q-19.14-12-26.9-24.21T982.43,339q0-13.14,5.68-21.53a38.86,38.86,0,0,1,15.55-13.15,82.3,82.3,0,0,1,22.72-6.88,169.92,169.92,0,0,1,27.21-2.09,66.75,66.75,0,0,1,7.47,1.2,83.29,83.29,0,0,1,13.46,3.88,60.35,60.35,0,0,1,12.85,6.58c3.79,2.6,5.68,5.48,5.68,8.67,0,.8-.7,2-2.09,3.59s-3.69,4.58-6.88,9c-1.19-.4-3.29-1-6.27-1.8l-10.17-2.69a112.45,112.45,0,0,0-11.66-2.39,67.76,67.76,0,0,0-9.57-.9q-15.56,0-25.11,5.68T1011.73,348q0,7.77,6.28,14.35a73.91,73.91,0,0,0,15.85,12.26q9.56,5.68,20.63,11.36a189,189,0,0,1,20.63,12.26,79.35,79.35,0,0,1,15.84,14A25.76,25.76,0,0,1,1097.24,429.32Z"/><path d="M1285,445.46a8.55,8.55,0,0,1,.59,3.59q0,3.58-5.38,10.76a67.32,67.32,0,0,1-7.77,7.78,81,81,0,0,1-16.14,10.76,129.67,129.67,0,0,1-24.82,9.57q-14.65,4.18-34.38,4.18a61.92,61.92,0,0,1-26.91-6.27,68.73,68.73,0,0,1-23.32-18.54q-10.17-12.26-16.74-30.5T1123.54,394a156.71,156.71,0,0,1,21.23-79.53Q1154,299,1165.4,290t22.12-9a52.87,52.87,0,0,1,19.44,3.89,78.23,78.23,0,0,1,17.93,9.86,51.32,51.32,0,0,1,12.86,13.46,28,28,0,0,1,4.78,15.24q0,9-8.07,18.54A104.1,104.1,0,0,1,1215,359.66a133.69,133.69,0,0,1-22.72,13.15q-11.37,5.1-17.94,5.09a8,8,0,0,1-6.28-3.29,12.28,12.28,0,0,1-2.69-8.07q0-8.37,7.47-13.16a116.75,116.75,0,0,1,16.45-8.67,87.71,87.71,0,0,0,16.44-9.27,17.4,17.4,0,0,0,7.47-14.95q0-1.19-3-6t-16.14-4.78q-6,0-13.75,6.88a81.41,81.41,0,0,0-14.95,18.53,116.67,116.67,0,0,0-12,27.51,118.16,118.16,0,0,0-4.78,34.38,67.19,67.19,0,0,0,5.68,28.1A68,68,0,0,0,1169,446.36a63.79,63.79,0,0,0,20.92,13.45,65.27,65.27,0,0,0,24.52,4.79,55.89,55.89,0,0,0,19.43-3.89q10.46-3.88,19.74-8.37t16.14-8.37q6.87-3.89,8.67-3.89a6.2,6.2,0,0,1,3.89,1.8A8.51,8.51,0,0,1,1285,445.46Z"/><path d="M1463.77,445.46a8.37,8.37,0,0,1,.6,3.59q0,3.58-5.38,10.76a68.18,68.18,0,0,1-7.77,7.78,81.08,81.08,0,0,1-16.15,10.76,129.29,129.29,0,0,1-24.81,9.57q-14.67,4.18-34.38,4.18a61.85,61.85,0,0,1-26.91-6.27,68.54,68.54,0,0,1-23.32-18.54q-10.19-12.26-16.75-30.5T1302.33,394a156.85,156.85,0,0,1,21.22-79.53q9.27-15.54,20.63-24.51t22.13-9a52.82,52.82,0,0,1,19.43,3.89,78.09,78.09,0,0,1,17.94,9.86,51.48,51.48,0,0,1,12.86,13.46,28.05,28.05,0,0,1,4.78,15.24q0,9-8.07,18.54a104.48,104.48,0,0,1-19.44,17.64,132.92,132.92,0,0,1-22.72,13.15q-11.37,5.1-17.94,5.09a8,8,0,0,1-6.28-3.29,12.34,12.34,0,0,1-2.69-8.07q0-8.37,7.48-13.16a116.62,116.62,0,0,1,16.44-8.67,87.4,87.4,0,0,0,16.44-9.27,17.4,17.4,0,0,0,7.48-14.95q0-1.19-3-6t-16.15-4.78q-6,0-13.75,6.88a82,82,0,0,0-15,18.53,117.08,117.08,0,0,0-12,27.51,118.5,118.5,0,0,0-4.78,34.38,67.34,67.34,0,0,0,5.68,28.1,68.2,68.2,0,0,0,14.65,21.23,63.73,63.73,0,0,0,20.93,13.45,65.22,65.22,0,0,0,24.51,4.79,55.94,55.94,0,0,0,19.44-3.89q10.45-3.88,19.73-8.37t16.15-8.37c4.57-2.59,7.47-3.89,8.67-3.89a6.2,6.2,0,0,1,3.88,1.8A8.51,8.51,0,0,1,1463.77,445.46Z"/><path d="M1645.55,412a8,8,0,0,1-2.69,5.68,11.09,11.09,0,0,0-3.29,5.68,30.14,30.14,0,0,0,2.69,12.56,34.87,34.87,0,0,1,2.69,14.35q0,7.77-4.78,7.77c-4,0-6.88.51-8.67,1.5s-4.89,1.89-9.27,2.69q-3.59,0-7.78-6.58a30.63,30.63,0,0,1-4.18-7.18q0-.58-3.29,2.4a53.7,53.7,0,0,1-10.76,6.87q-7.48,3.9-20.33,7.18t-32.59,3.29q-16.75,0-29.3-7.48a64,64,0,0,1-20.63-19.43,86.22,86.22,0,0,1-12-27.21,123.69,123.69,0,0,1-3.89-30.79,109.59,109.59,0,0,1,3.29-27.21,83.34,83.34,0,0,1,9.27-22.72,49.55,49.55,0,0,1,15-15.85,36.88,36.88,0,0,1,20.93-6q11.36,0,22.72,7.18A136.59,136.59,0,0,1,1569,334.25a238.61,238.61,0,0,1,20.33,22.12q-8.38-46.64-14.95-84.31-3-16.14-5.68-32t-5.08-28.4q-2.4-12.55-3.89-21.23a96.3,96.3,0,0,1-1.49-10.46c-.4-2.4-.81-6.67-1.2-12.86s-.8-12.65-1.19-19.43-.81-12.95-1.2-18.54a82,82,0,0,0-1.2-10.76l-4.48-15c-1.79-6-2.69-9.36-2.69-10.17,0-2,1-4.48,3-7.47s4.58-4.49,7.77-4.49a34.36,34.36,0,0,1,6.58.6A9.31,9.31,0,0,1,1569,85.5a31.29,31.29,0,0,1,4.49,9.27,115.75,115.75,0,0,1,3.88,17.64q.58,6,3.59,22.72t6,36.47q3,19.74,6,37.68t4.18,26.3q3,22.74,8.08,49.34T1615.65,336q5.38,24.52,10.76,43.35T1636,404.8c.79,1.6,2.39,2.69,4.78,3.29A6.48,6.48,0,0,1,1645.55,412Zm-44.25,12q-.6-1.8-7.47-15.25a310.6,310.6,0,0,0-17.35-29.3,172.3,172.3,0,0,0-23.31-28.4q-12.87-12.56-24.82-12.56-10.17,0-16.44,15.55t-6.28,35.87q0,22.74,13.45,36.48t30.2,13.75a101.59,101.59,0,0,0,29.9-4.78Q1594.72,430.52,1601.3,423.94Z"/><path class="cls-1" d="M1700,470c0,2.39-1.19,4.69-3.59,6.88a50.26,50.26,0,0,1-8.07,6,48.76,48.76,0,0,1-8.67,4.18,30.24,30.24,0,0,1-4.78,1.5q-5.38,0-8.07-2.69a20.19,20.19,0,0,1-4.19-6,19.65,19.65,0,0,1-1.79-6.28c-.21-2-.3-3.38-.3-4.19a22.48,22.48,0,0,1,1.19-6.28,29.26,29.26,0,0,1,9.27-13.75,11.49,11.49,0,0,1,7.48-2.69q7.75,0,14.65,6.58A22.22,22.22,0,0,1,1700,470Z"/></svg>